HIERARCHY
ROOT hips
{
	OFFSET -0.003675 0.299928 -0.021708
	CHANNELS 6 Xposition Yposition Zposition Xrotation Yrotation Zrotation
	JOINT LowerBack
	{
		OFFSET 0.000919 0.177588 0.009275
		CHANNELS 3 Xrotation Yrotation Zrotation
		JOINT spine
		{
			OFFSET 0.000919 0.177588 0.009275
			CHANNELS 3 Xrotation Yrotation Zrotation
			JOINT chest
			{
				OFFSET 0.000456 0.100015 0.004638
				CHANNELS 3 Xrotation Yrotation Zrotation
				JOINT neck
				{
					OFFSET 0.000456 0.100015 0.004638
					CHANNELS 3 Xrotation Yrotation Zrotation
					JOINT head
					{
						OFFSET 0.000924 0.155147 0.009274
						CHANNELS 6 Xposition Yposition Zposition Xrotation Yrotation Zrotation
						End Site
						{
							OFFSET 0.000000 0.153400 0.000000
						}
					}
				}
				JOINT shoulder.L
				{
					OFFSET 0.019937 0.078966 0.057518
					CHANNELS 6 Xposition Yposition Zposition Yrotation Xrotation Zrotation
					JOINT upper_arm.L
					{
						OFFSET 0.177024 -0.020465 -0.095062
						CHANNELS 6 Xposition Yposition Zposition Xrotation Yrotation Zrotation
						JOINT forearm.L
						{
							OFFSET 0.247100 -0.135500 -0.061800
							CHANNELS 3 Xrotation Yrotation Zrotation
							JOINT hand.L
							{
								OFFSET 0.217000 -0.143000 0.039300
								CHANNELS 3 Xrotation Yrotation Zrotation
								JOINT palm.01.L
								{
									OFFSET 0.021770 -0.038291 0.012954
									CHANNELS 6 Xposition Yposition Zposition Yrotation Xrotation Zrotation
									JOINT f_index.01.L
									{
										OFFSET 0.053215 -0.044137 0.008236
										CHANNELS 3 Xrotation Yrotation Zrotation
										JOINT f_index.02.L
										{
											OFFSET 0.036108 -0.024723 -0.010656
											CHANNELS 3 Xrotation Yrotation Zrotation
											JOINT f_index.03.L
											{
												OFFSET 0.021342 -0.014948 -0.010846
												CHANNELS 3 Xrotation Yrotation Zrotation
												End Site
												{
													OFFSET 0.015600 -0.009860 -0.013421
												}
											}
										}
									}
									JOINT thumb.01.L
									{
										OFFSET -0.009090 -0.002348 -0.024223
										CHANNELS 6 Xposition Yposition Zposition Xrotation Yrotation Zrotation
										JOINT thumb.02.L
										{
											OFFSET 0.019713 -0.035076 -0.011120
											CHANNELS 3 Xrotation Yrotation Zrotation
											JOINT thumb.03.L
											{
												OFFSET 0.024877 -0.021748 -0.005176
												CHANNELS 3 Xrotation Yrotation Zrotation
												End Site
												{
													OFFSET 0.016125 -0.013029 -0.001569
												}
											}
										}
									}
								}
								JOINT palm.02.L
								{
									OFFSET 0.032823 -0.025104 0.012281
									CHANNELS 6 Xposition Yposition Zposition Yrotation Xrotation Zrotation
									JOINT f_middle.01.L
									{
										OFFSET 0.055723 -0.038469 0.008037
										CHANNELS 3 Xrotation Yrotation Zrotation
										JOINT f_middle.02.L
										{
											OFFSET 0.038167 -0.027473 -0.015582
											CHANNELS 3 Xrotation Yrotation Zrotation
											JOINT f_middle.03.L
											{
												OFFSET 0.021707 -0.016587 -0.017037
												CHANNELS 3 Xrotation Yrotation Zrotation
												End Site
												{
													OFFSET 0.014112 -0.010584 -0.014294
												}
											}
										}
									}
								}
								JOINT palm.03.L
								{
									OFFSET 0.039230 -0.011402 0.008390
									CHANNELS 6 Xposition Yposition Zposition Yrotation Xrotation Zrotation
									JOINT f_ring.01.L
									{
										OFFSET 0.061796 -0.031470 0.007910
										CHANNELS 3 Xrotation Yrotation Zrotation
										JOINT f_ring.02.L
										{
											OFFSET 0.033092 -0.023401 -0.019127
											CHANNELS 3 Xrotation Yrotation Zrotation
											JOINT f_ring.03.L
											{
												OFFSET 0.021392 -0.015362 -0.017824
												CHANNELS 3 Xrotation Yrotation Zrotation
												End Site
												{
													OFFSET 0.008670 -0.007297 -0.014686
												}
											}
										}
									}
								}
								JOINT palm.04.L
								{
									OFFSET 0.043417 0.002450 0.002889
									CHANNELS 6 Xposition Yposition Zposition Yrotation Xrotation Zrotation
									JOINT f_pinky.01.L
									{
										OFFSET 0.069986 -0.026156 0.003627
										CHANNELS 3 Xrotation Yrotation Zrotation
										JOINT f_pinky.02.L
										{
											OFFSET 0.018520 -0.012813 -0.016429
											CHANNELS 3 Xrotation Yrotation Zrotation
											JOINT f_pinky.03.L
											{
												OFFSET 0.013822 -0.009796 -0.014947
												CHANNELS 3 Xrotation Yrotation Zrotation
												End Site
												{
													OFFSET 0.007238 -0.006103 -0.011657
												}
											}
										}
									}
								}
							}
						}
					}
				}
				JOINT shoulder.R
				{
					OFFSET -0.016662 0.078957 0.057696
					CHANNELS 6 Xposition Yposition Zposition Yrotation Xrotation Zrotation
					JOINT upper_arm.R
					{
						OFFSET -0.176972 -0.020537 -0.095144
						CHANNELS 6 Xposition Yposition Zposition Xrotation Yrotation Zrotation
						JOINT forearm.R
						{
							OFFSET -0.247100 -0.135500 -0.061800
							CHANNELS 3 Xrotation Yrotation Zrotation
							JOINT hand.R
							{
								OFFSET -0.217000 -0.143000 0.039300
								CHANNELS 3 Xrotation Yrotation Zrotation
								JOINT palm.01.R
								{
									OFFSET -0.021773 -0.038278 0.012988
									CHANNELS 6 Xposition Yposition Zposition Yrotation Xrotation Zrotation
									JOINT f_index.01.R
									{
										OFFSET -0.053212 -0.044139 0.008249
										CHANNELS 3 Xrotation Yrotation Zrotation
										JOINT f_index.02.R
										{
											OFFSET -0.036049 -0.024835 -0.010634
											CHANNELS 3 Xrotation Yrotation Zrotation
											JOINT f_index.03.R
											{
												OFFSET -0.021371 -0.014881 -0.010866
												CHANNELS 3 Xrotation Yrotation Zrotation
												End Site
												{
													OFFSET -0.015584 -0.009883 -0.013422
												}
											}
										}
									}
									JOINT thumb.01.R
									{
										OFFSET 0.009113 -0.002381 -0.024211
										CHANNELS 6 Xposition Yposition Zposition Xrotation Yrotation Zrotation
										JOINT thumb.02.R
										{
											OFFSET -0.019694 -0.035097 -0.011088
											CHANNELS 3 Xrotation Yrotation Zrotation
											JOINT thumb.03.R
											{
												OFFSET -0.024867 -0.021762 -0.005168
												CHANNELS 3 Xrotation Yrotation Zrotation
												End Site
												{
													OFFSET -0.016120 -0.013036 -0.001565
												}
											}
										}
									}
								}
								JOINT palm.02.R
								{
									OFFSET -0.032828 -0.025095 0.012286
									CHANNELS 6 Xposition Yposition Zposition Yrotation Xrotation Zrotation
									JOINT f_middle.01.R
									{
										OFFSET -0.055721 -0.038472 0.008040
										CHANNELS 3 Xrotation Yrotation Zrotation
										JOINT f_middle.02.R
										{
											OFFSET -0.038101 -0.027593 -0.015557
											CHANNELS 3 Xrotation Yrotation Zrotation
											JOINT f_middle.03.R
											{
												OFFSET -0.021730 -0.016530 -0.017054
												CHANNELS 3 Xrotation Yrotation Zrotation
												End Site
												{
													OFFSET -0.014096 -0.010608 -0.014293
												}
											}
										}
									}
								}
								JOINT palm.03.R
								{
									OFFSET -0.039192 -0.011488 0.008390
									CHANNELS 6 Xposition Yposition Zposition Yrotation Xrotation Zrotation
									JOINT f_ring.01.R
									{
										OFFSET -0.061839 -0.031387 0.007876
										CHANNELS 3 Xrotation Yrotation Zrotation
										JOINT f_ring.02.R
										{
											OFFSET -0.033068 -0.023437 -0.019125
											CHANNELS 3 Xrotation Yrotation Zrotation
											JOINT f_ring.03.R
											{
												OFFSET -0.021371 -0.015393 -0.017822
												CHANNELS 3 Xrotation Yrotation Zrotation
												End Site
												{
													OFFSET -0.008654 -0.007321 -0.014684
												}
											}
										}
									}
								}
								JOINT palm.04.R
								{
									OFFSET -0.043421 0.002443 0.002845
									CHANNELS 6 Xposition Yposition Zposition Yrotation Xrotation Zrotation
									JOINT f_pinky.01.R
									{
										OFFSET -0.069983 -0.026169 0.003599
										CHANNELS 3 Xrotation Yrotation Zrotation
										JOINT f_pinky.02.R
										{
											OFFSET -0.018501 -0.012842 -0.016428
											CHANNELS 3 Xrotation Yrotation Zrotation
											JOINT f_pinky.03.R
											{
												OFFSET -0.013806 -0.009821 -0.014946
												CHANNELS 3 Xrotation Yrotation Zrotation
												End Site
												{
													OFFSET -0.007226 -0.006121 -0.011655
												}
											}
										}
									}
								}
							}
						}
					}
				}
			}
		}
	}
	JOINT pelvis.L
	{
		OFFSET 0.000000 0.000000 0.000000
		CHANNELS 6 Xposition Yposition Zposition Xrotation Yrotation Zrotation
		JOINT thigh.L
		{
			OFFSET 0.101675 0.001054 -0.000000
			CHANNELS 3 Xrotation Yrotation Zrotation
			JOINT shin.L
			{
				OFFSET 0.000000 -0.534800 0.041000
				CHANNELS 3 Xrotation Yrotation Zrotation
				JOINT foot.L
				{
					OFFSET 0.000000 -0.452000 -0.044800
					CHANNELS 3 Xrotation Yrotation Zrotation
					JOINT toe.L
					{
						OFFSET -0.000000 -0.068500 0.109600
						CHANNELS 3 Xrotation Yrotation Zrotation
						End Site
						{
							OFFSET -0.000000 0.000000 0.067200
						}
					}
				}
				JOINT heel.L
				{
					OFFSET 0.000000 -0.452000 -0.044800
					CHANNELS 3 Xrotation Yrotation Zrotation
					JOINT heel.02.L
					{
						OFFSET -0.038000 -0.085200 0.016200
						CHANNELS 6 Xposition Yposition Zposition Xrotation Yrotation Zrotation
						End Site
						{
							OFFSET 0.080000 -0.000000 0.000000
						}
					}
				}
			}
		}
	}
	JOINT pelvis.R
	{
		OFFSET 0.000000 0.000000 0.000000
		CHANNELS 6 Xposition Yposition Zposition Xrotation Yrotation Zrotation
		JOINT thigh.R
		{
			OFFSET -0.094325 0.001054 0.000000
			CHANNELS 3 Xrotation Yrotation Zrotation
			JOINT shin.R
			{
				OFFSET 0.000000 -0.534800 0.041000
				CHANNELS 3 Xrotation Yrotation Zrotation
				JOINT foot.R
				{
					OFFSET 0.000000 -0.452000 -0.044800
					CHANNELS 3 Xrotation Yrotation Zrotation
					JOINT toe.R
					{
						OFFSET -0.000000 -0.068500 0.109600
						CHANNELS 3 Xrotation Yrotation Zrotation
						End Site
						{
							OFFSET -0.000000 0.000000 0.067200
						}
					}
				}
				JOINT heel.R
				{
					OFFSET 0.000000 -0.452000 -0.044800
					CHANNELS 3 Xrotation Yrotation Zrotation
					JOINT heel.02.R
					{
						OFFSET 0.038000 -0.085200 0.016200
						CHANNELS 6 Xposition Yposition Zposition Xrotation Yrotation Zrotation
						End Site
						{
							OFFSET -0.080000 0.000000 -0.000000
						}
					}
				}
			}
		}
	}
}
MOTION
Frames: 4
Frame Time: 0.041667
-0.007735 0.277763 -0.021154 71.473579 34.015913 -68.360795 -0.000002 -0.000001 0.000001 -0.000004 -0.000000 0.000000 0.000005 0.000000 -0.000000 0.000003 -0.000000 -0.000001 0.000924 0.155148 0.009274 8.257174 -0.011302 -1.201774 0.019937 0.078966 0.057518 7.287553 2.370095 28.528204 0.177024 -0.020465 -0.095062 -64.209188 13.158391 -51.838342 -47.026768 -25.617241 -32.190579 -0.000001 -0.000001 -0.000002 0.021770 -0.038291 0.012954 -0.000002 0.000003 0.000001 -0.000002 -0.000000 0.000001 0.000000 0.000001 0.000007 -0.000000 0.000002 -0.000003 -0.009090 -0.002348 -0.024223 -0.000001 -0.000003 -0.000001 -0.000000 0.000001 0.000001 -0.000000 0.000001 -0.000002 0.032823 -0.025104 0.012281 -0.000002 0.000002 0.000002 -0.000001 -0.000002 -0.000005 -0.000001 -0.000002 -0.000002 0.000001 0.000000 0.000002 0.039230 -0.011402 0.008390 0.000000 0.000001 0.000003 0.000001 -0.000001 0.000001 -0.000000 0.000003 0.000003 0.000001 -0.000006 0.000003 0.043417 0.002450 0.002889 0.000000 0.000002 -0.000002 0.000000 -0.000005 -0.000000 0.000001 0.000001 0.000001 -0.000004 -0.000003 -0.000001 -0.016662 0.078957 0.057696 25.585673 4.336267 -40.755858 -0.176972 -0.020537 -0.095144 -79.569928 -27.707163 52.459138 -13.032058 12.395625 16.865238 -0.000001 -0.000004 0.000003 -0.021773 -0.038278 0.012988 -0.000003 -0.000003 0.000000 -0.000001 0.000002 -0.000003 -0.000002 0.000001 -0.000001 0.000001 0.000000 -0.000001 0.009113 -0.002381 -0.024212 0.000002 -0.000003 -0.000001 -0.000001 -0.000004 0.000000 0.000002 0.000003 0.000003 -0.032829 -0.025095 0.012286 0.000000 -0.000000 -0.000001 -0.000000 0.000003 0.000004 0.000001 0.000003 -0.000000 -0.000006 0.000003 -0.000004 -0.039192 -0.011488 0.008390 -0.000002 0.000001 -0.000000 -0.000001 -0.000001 -0.000002 0.000002 0.000000 -0.000000 0.000001 0.000003 -0.000001 -0.043421 0.002443 0.002845 -0.000005 0.000001 0.000000 -0.000003 0.000004 -0.000001 0.000001 -0.000006 -0.000003 -0.000001 -0.000004 -0.000000 0.000000 0.000000 0.000000 -1.913723 -0.761088 7.825811 -74.346978 -0.682308 -5.284461 39.344229 -1.187729 12.076292 -0.000002 -0.000001 0.000002 0.000002 -0.000003 0.000001 0.000002 -0.000003 -0.000000 -0.038000 -0.085200 0.016200 0.000001 0.000001 -0.000000 0.000000 0.000000 0.000000 -1.897551 -0.758696 9.060212 -57.926664 0.689042 5.044609 57.587838 -0.406988 4.111140 0.000000 -0.000001 0.000001 0.000005 -0.000001 0.000002 0.000007 -0.000003 0.000001 0.038000 -0.085200 0.016200 -0.000001 -0.000001 0.000001 
-0.014072 0.293880 -0.017781 87.142204 40.178475 -79.038088 -0.000001 -0.000001 0.000000 -0.000001 -0.000000 0.000001 0.000002 -0.000000 -0.000000 0.000001 0.000000 -0.000001 0.000924 0.155147 0.009274 17.326308 -0.021285 -3.008734 0.019937 0.078966 0.057518 -0.187653 3.527760 31.625234 0.177025 -0.020465 -0.095062 -66.382192 16.001456 -53.375954 -35.319205 -19.891350 -32.084964 -0.000003 -0.000000 0.000005 0.021770 -0.038291 0.012954 0.000005 0.000004 -0.000002 -0.000001 -0.000001 -0.000004 0.000001 0.000001 0.000003 0.000003 0.000002 0.000004 -0.009090 -0.002348 -0.024224 0.000001 -0.000002 -0.000001 0.000001 0.000003 0.000001 -0.000000 0.000004 -0.000004 0.032823 -0.025104 0.012281 0.000004 0.000003 0.000002 -0.000000 -0.000001 -0.000005 -0.000001 -0.000002 -0.000003 0.000000 0.000002 0.000004 0.039230 -0.011402 0.008390 0.000004 0.000002 0.000004 0.000003 0.000002 0.000001 0.000002 0.000008 -0.000002 0.000002 -0.000003 0.000004 0.043418 0.002450 0.002889 0.000005 0.000004 -0.000005 -0.000001 -0.000005 -0.000000 0.000001 0.000000 0.000001 0.000002 0.000001 -0.000000 -0.016662 0.078956 0.057696 17.657642 4.503031 -37.688403 -0.176972 -0.020537 -0.095144 -79.136225 -26.254909 52.775260 -10.794996 11.514118 14.748585 0.000000 0.000003 -0.000000 -0.021773 -0.038278 0.012988 -0.000001 -0.000001 -0.000003 -0.000002 0.000001 -0.000003 -0.000000 -0.000004 -0.000005 -0.000002 0.000000 0.000004 0.009113 -0.002381 -0.024211 -0.000000 -0.000002 -0.000003 -0.000001 -0.000002 0.000002 0.000002 -0.000003 0.000003 -0.032828 -0.025095 0.012286 0.000005 -0.000001 -0.000001 0.000002 0.000001 0.000002 0.000002 0.000002 -0.000004 0.000001 0.000003 -0.000006 -0.039192 -0.011488 0.008390 0.000002 0.000000 0.000001 -0.000001 0.000003 -0.000003 0.000001 -0.000003 0.000003 -0.000001 0.000002 -0.000003 -0.043421 0.002443 0.002844 0.000003 -0.000001 -0.000001 -0.000005 0.000009 -0.000003 -0.000002 -0.000001 -0.000000 0.000001 0.000001 0.000002 -0.000000 0.000000 -0.000000 -1.670678 -0.401985 3.916842 -72.154965 -0.373788 -1.329334 47.015324 -0.827189 8.378238 0.000003 -0.000000 -0.000001 0.000001 -0.000002 0.000002 0.000000 0.000000 0.000000 -0.038000 -0.085200 0.016200 -0.000003 -0.000001 -0.000002 -0.000000 0.000000 -0.000000 -1.647215 -0.400120 5.151197 -73.440414 0.498255 2.196039 40.778101 -0.445141 4.496807 0.000000 0.000000 -0.000001 0.000001 0.000000 0.000000 0.000005 -0.000001 0.000000 0.038000 -0.085200 0.016200 -0.000003 -0.000001 0.000000 
-0.015805 0.293621 -0.017430 91.894308 41.655866 -83.705990 0.000001 -0.000000 0.000000 0.000002 0.000000 -0.000000 0.000000 -0.000000 -0.000000 -0.000000 0.000000 0.000000 0.000924 0.155148 0.009274 16.167203 -0.020215 -1.851140 0.019937 0.078966 0.057518 -5.081277 3.545549 33.484483 0.177024 -0.020465 -0.095062 -65.389431 18.916885 -55.429116 -30.288453 -16.345032 -34.458830 -0.000001 -0.000001 0.000002 0.021770 -0.038291 0.012954 0.000001 0.000002 0.000001 -0.000003 -0.000004 0.000010 0.000002 0.000003 0.000005 -0.000000 0.000003 0.000000 -0.009090 -0.002348 -0.024223 -0.000004 -0.000003 0.000004 -0.000001 0.000002 0.000001 -0.000000 -0.000004 -0.000002 0.032823 -0.025104 0.012281 0.000004 0.000002 0.000005 0.000001 0.000003 -0.000005 -0.000006 0.000003 0.000002 -0.000003 -0.000005 0.000003 0.039230 -0.011402 0.008390 0.000004 0.000001 0.000004 -0.000000 -0.000001 -0.000000 0.000000 0.000008 -0.000000 0.000000 -0.000000 0.000002 0.043418 0.002450 0.002889 0.000002 0.000002 -0.000000 -0.000000 -0.000006 -0.000002 0.000001 0.000004 -0.000001 -0.000000 0.000001 -0.000001 -0.016662 0.078956 0.057696 12.467727 4.002130 -36.023111 -0.176972 -0.020537 -0.095144 -79.732377 -27.545757 53.214458 -8.772056 9.941806 13.874673 -0.000001 0.000001 0.000004 -0.021773 -0.038278 0.012988 -0.000001 -0.000001 0.000000 0.000001 0.000001 -0.000001 -0.000000 -0.000000 -0.000004 0.000000 0.000003 -0.000003 0.009114 -0.002381 -0.024212 0.000003 0.000000 0.000001 -0.000003 -0.000003 0.000002 0.000002 -0.000004 -0.000001 -0.032828 -0.025095 0.012286 0.000001 0.000001 -0.000006 0.000001 0.000003 -0.000004 0.000003 -0.000002 -0.000004 -0.000002 0.000003 -0.000006 -0.039192 -0.011488 0.008390 0.000001 0.000003 -0.000004 -0.000003 0.000005 0.000002 -0.000000 0.000002 -0.000000 0.000000 0.000004 -0.000003 -0.043421 0.002443 0.002845 0.000000 0.000001 -0.000001 -0.000003 0.000006 0.000001 -0.000001 -0.000003 0.000000 -0.000003 0.000005 -0.000001 0.000000 0.000000 -0.000000 -1.685990 -0.133975 0.634427 -73.240351 -0.236342 0.475650 40.196558 -0.206726 2.088294 0.000000 0.000000 -0.000001 0.000002 0.000000 -0.000000 0.000000 0.000000 -0.000001 -0.038000 -0.085200 0.016200 0.000001 -0.000000 -0.000001 0.000000 0.000000 -0.000000 -1.653987 -0.133299 1.868677 -75.651093 0.415849 1.091925 38.259540 0.025443 -0.255791 0.000000 -0.000001 0.000000 0.000003 -0.000000 -0.000001 0.000003 -0.000000 0.000000 0.038000 -0.085200 0.016200 -0.000000 -0.000000 -0.000000 
-0.014611 0.291028 -0.017402 97.115516 43.722729 -86.714722 0.000002 0.000000 -0.000000 -0.000001 0.000000 0.000000 -0.000001 -0.000001 -0.000001 0.000003 -0.000000 0.000000 0.000924 0.155147 0.009275 10.597542 -0.013829 1.328281 0.019937 0.078966 0.057518 -4.131875 3.625004 33.049803 0.177024 -0.020465 -0.095062 -57.904759 18.476464 -58.298718 -38.059354 -15.230934 -42.051740 0.000002 -0.000001 0.000001 0.021770 -0.038291 0.012954 -0.000000 0.000003 0.000001 -0.000001 0.000001 0.000001 0.000001 -0.000006 0.000001 0.000002 0.000003 0.000000 -0.009090 -0.002348 -0.024224 0.000001 0.000001 0.000001 -0.000002 -0.000002 -0.000002 -0.000003 -0.000004 -0.000001 0.032823 -0.025104 0.012281 -0.000001 0.000002 0.000002 -0.000001 0.000002 -0.000005 -0.000002 -0.000001 0.000003 -0.000000 0.000003 0.000001 0.039230 -0.011402 0.008390 0.000001 0.000001 0.000003 0.000005 0.000000 -0.000000 -0.000001 -0.000001 0.000001 0.000001 -0.000004 0.000004 0.043417 0.002450 0.002889 -0.000004 0.000002 -0.000000 -0.000003 -0.000006 0.000001 -0.000000 0.000002 -0.000001 -0.000001 0.000000 -0.000002 -0.016662 0.078956 0.057696 12.830439 3.960091 -35.486572 -0.176972 -0.020537 -0.095144 -72.807030 -23.275531 54.240602 -21.808371 20.432726 15.308778 -0.000000 -0.000001 -0.000003 -0.021773 -0.038278 0.012988 0.000001 -0.000001 -0.000002 -0.000004 0.000004 0.000001 -0.000002 -0.000006 -0.000003 0.000000 -0.000002 0.000003 0.009113 -0.002381 -0.024212 -0.000002 -0.000001 0.000004 -0.000003 0.000001 0.000000 -0.000000 0.000003 0.000003 -0.032828 -0.025095 0.012286 -0.000000 0.000002 -0.000005 0.000001 -0.000006 0.000000 0.000002 0.000000 -0.000000 -0.000003 0.000003 -0.000004 -0.039192 -0.011488 0.008390 -0.000001 0.000002 -0.000004 -0.000003 0.000004 -0.000005 -0.000000 0.000000 -0.000000 -0.000000 0.000003 0.000003 -0.043421 0.002443 0.002844 -0.000004 0.000000 0.000000 -0.000005 0.000006 -0.000001 0.000003 -0.000006 -0.000002 -0.000003 0.000001 0.000001 -0.000000 0.000000 -0.000000 -1.667152 0.107204 -2.320949 -62.002019 -0.526961 -3.572754 34.635346 0.768626 -7.777099 -0.000002 -0.000000 -0.000000 -0.000001 0.000000 -0.000000 0.000000 -0.000000 -0.000000 -0.038000 -0.085200 0.016200 -0.000006 -0.000000 -0.000000 -0.000000 0.000000 -0.000000 -1.628008 0.106030 -1.086828 -73.649110 0.306781 -0.260686 6.687926 -0.613485 6.202481 0.000000 -0.000000 -0.000000 0.000001 -0.000001 -0.000000 0.000003 0.000000 0.000000 0.038000 -0.085200 0.016200 -0.000001 0.000001 -0.000003 
